<?xml version="1.0" encoding="UTF-8"?>
<svg width="700pt" height="700pt" version="1.1" viewBox="0 0 700 700" xmlns="http://www.w3.org/2000/svg" xmlns:xlink="http://www.w3.org/1999/xlink">
 <defs>
  <symbol id="v" overflow="visible">
   <path d="m10.656-0.64062c-0.55469 0.29297-1.125 0.50781-1.7188 0.64062-0.59375 0.14453-1.2148 0.21875-1.8594 0.21875-1.9375 0-3.4688-0.53516-4.5938-1.6094-1.125-1.082-1.6875-2.5469-1.6875-4.3906 0-1.8516 0.5625-3.3203 1.6875-4.4062 1.125-1.082 2.6562-1.625 4.5938-1.625 0.64453 0 1.2656 0.074219 1.8594 0.21875 0.59375 0.14844 1.1641 0.36719 1.7188 0.65625v2.3906c-0.55469-0.375-1.1016-0.64844-1.6406-0.82812-0.54297-0.17578-1.1094-0.26562-1.7031-0.26562-1.0625 0-1.9023 0.34375-2.5156 1.0312-0.60547 0.67969-0.90625 1.6211-0.90625 2.8281 0 1.1992 0.30078 2.1406 0.90625 2.8281 0.61328 0.67969 1.4531 1.0156 2.5156 1.0156 0.59375 0 1.1602-0.085938 1.7031-0.26562 0.53906-0.17578 1.0859-0.45312 1.6406-0.82812z"/>
  </symbol>
  <symbol id="b" overflow="visible">
   <path d="m7.7969-6.3281c-0.24219-0.11328-0.48438-0.19531-0.73438-0.25-0.24219-0.050781-0.48047-0.078125-0.71875-0.078125-0.71094 0-1.2617 0.23047-1.6562 0.6875-0.38672 0.44922-0.57812 1.1055-0.57812 1.9688v4h-2.7812v-8.7031h2.7812v1.4375c0.36328-0.57031 0.77344-0.98828 1.2344-1.25 0.46875-0.25781 1.0234-0.39062 1.6719-0.39062 0.09375 0 0.19141 0.007812 0.29688 0.015625 0.11328 0 0.27344 0.015625 0.48438 0.046875z"/>
  </symbol>
  <symbol id="a" overflow="visible">
   <path d="m10.016-4.375v0.79688h-6.5c0.070313 0.64844 0.30469 1.1367 0.70312 1.4688 0.40625 0.32422 0.97266 0.48438 1.7031 0.48438 0.58203 0 1.1797-0.082031 1.7969-0.25 0.61328-0.17578 1.2422-0.44141 1.8906-0.79688v2.1406c-0.65625 0.25-1.3203 0.4375-1.9844 0.5625-0.65625 0.125-1.3125 0.1875-1.9688 0.1875-1.5742 0-2.7969-0.39453-3.6719-1.1875-0.86719-0.80078-1.2969-1.9258-1.2969-3.375 0-1.4141 0.42578-2.5312 1.2812-3.3438 0.85156-0.8125 2.0312-1.2188 3.5312-1.2188 1.375 0 2.4688 0.41406 3.2812 1.2344 0.82031 0.82422 1.2344 1.9219 1.2344 3.2969zm-2.8594-0.92188c0-0.53125-0.15625-0.95703-0.46875-1.2812-0.30469-0.32031-0.70312-0.48438-1.2031-0.48438-0.53125 0-0.96875 0.15234-1.3125 0.45312-0.33594 0.30469-0.54297 0.74219-0.625 1.3125z"/>
  </symbol>
  <symbol id="e" overflow="visible">
   <path d="m5.2344-3.9219c-0.58594 0-1.0234 0.10156-1.3125 0.29688-0.29297 0.19922-0.4375 0.49219-0.4375 0.875 0 0.35547 0.11328 0.63281 0.34375 0.82812 0.23828 0.19922 0.57031 0.29688 1 0.29688 0.51953 0 0.95703-0.1875 1.3125-0.5625 0.35156-0.375 0.53125-0.84375 0.53125-1.4062v-0.32812zm4.25-1.0469v4.9688h-2.8125v-1.2969c-0.36719 0.53125-0.78125 0.91797-1.25 1.1562-0.46875 0.23828-1.0391 0.35938-1.7031 0.35938-0.89844 0-1.625-0.25781-2.1875-0.78125-0.5625-0.51953-0.84375-1.2031-0.84375-2.0469 0-1.0195 0.34766-1.7656 1.0469-2.2344 0.69531-0.47656 1.8008-0.71875 3.3125-0.71875h1.625v-0.21875c0-0.44531-0.17188-0.76953-0.51562-0.96875-0.34375-0.20703-0.88672-0.3125-1.625-0.3125-0.59375 0-1.1484 0.0625-1.6562 0.1875-0.51172 0.11719-0.99219 0.29297-1.4375 0.53125v-2.125c0.60156-0.14453 1.2031-0.25391 1.7969-0.32812 0.60156-0.070313 1.207-0.10938 1.8125-0.10938 1.5625 0 2.6914 0.3125 3.3906 0.9375 0.69531 0.61719 1.0469 1.6172 1.0469 3z"/>
  </symbol>
  <symbol id="d" overflow="visible">
   <path d="m4.375-11.172v2.4688h2.8594v2h-2.8594v3.6875c0 0.39844 0.078125 0.66797 0.23438 0.8125 0.16406 0.14844 0.48438 0.21875 0.95312 0.21875h1.4375v1.9844h-2.3906c-1.0938 0-1.8711-0.22656-2.3281-0.6875-0.46094-0.45703-0.6875-1.2344-0.6875-2.3281v-3.6875h-1.3906v-2h1.3906v-2.4688z"/>
  </symbol>
  <symbol id="f" overflow="visible">
   <path d="m7.25-7.4219v-4.6562h2.7969v12.078h-2.7969v-1.2656c-0.38672 0.52344-0.80859 0.90234-1.2656 1.1406-0.46094 0.22656-0.99219 0.34375-1.5938 0.34375-1.0742 0-1.9531-0.42188-2.6406-1.2656-0.6875-0.85156-1.0312-1.9531-1.0312-3.2969s0.34375-2.4375 1.0312-3.2812c0.6875-0.85156 1.5664-1.2812 2.6406-1.2812 0.60156 0 1.1328 0.12109 1.5938 0.35938 0.45703 0.24219 0.87891 0.61719 1.2656 1.125zm-1.8281 5.625c0.59375 0 1.0469-0.21094 1.3594-0.64062 0.3125-0.4375 0.46875-1.0703 0.46875-1.9062 0-0.82031-0.15625-1.4531-0.46875-1.8906s-0.76562-0.65625-1.3594-0.65625-1.0469 0.21875-1.3594 0.65625-0.46875 1.0703-0.46875 1.8906c0 0.83594 0.15625 1.4688 0.46875 1.9062 0.3125 0.42969 0.76562 0.64062 1.3594 0.64062z"/>
  </symbol>
  <symbol id="m" overflow="visible">
   <path d="m5.9688-1.7969c0.59375 0 1.0469-0.21094 1.3594-0.64062 0.3125-0.4375 0.46875-1.0703 0.46875-1.9062 0-0.82031-0.15625-1.4531-0.46875-1.8906s-0.76562-0.65625-1.3594-0.65625-1.0547 0.21875-1.375 0.65625c-0.32422 0.4375-0.48438 1.0703-0.48438 1.8906 0 0.82422 0.16016 1.4531 0.48438 1.8906 0.32031 0.4375 0.78125 0.65625 1.375 0.65625zm-1.8594-5.625c0.38281-0.50781 0.8125-0.88281 1.2812-1.125 0.46875-0.23828 1.0039-0.35938 1.6094-0.35938 1.0703 0 1.9531 0.42969 2.6406 1.2812 0.6875 0.84375 1.0312 1.9375 1.0312 3.2812s-0.34375 2.4453-1.0312 3.2969c-0.6875 0.84375-1.5703 1.2656-2.6406 1.2656-0.60547 0-1.1406-0.12109-1.6094-0.35938-0.46875-0.23828-0.89844-0.61328-1.2812-1.125v1.2656h-2.7812v-12.078h2.7812z"/>
  </symbol>
  <symbol id="l" overflow="visible">
   <path d="m0.1875-8.7031h2.7812l2.3438 5.9062 1.9844-5.9062h2.7812l-3.6562 9.5312c-0.36719 0.96875-0.79297 1.6445-1.2812 2.0312-0.49219 0.38281-1.1367 0.57812-1.9375 0.57812h-1.6094v-1.8281h0.875c0.46875 0 0.80469-0.078125 1.0156-0.23438 0.21875-0.14844 0.38281-0.41406 0.5-0.79688l0.078125-0.25z"/>
  </symbol>
  <symbol id="k" overflow="visible">
   <path d="m8.125-8.4219v2.1094c-0.59375-0.25-1.168-0.4375-1.7188-0.5625-0.55469-0.125-1.0742-0.1875-1.5625-0.1875-0.53125 0-0.92969 0.070312-1.1875 0.20312-0.25 0.13672-0.375 0.33984-0.375 0.60938 0 0.21875 0.09375 0.39062 0.28125 0.51562 0.19531 0.11719 0.54688 0.20312 1.0469 0.26562l0.5 0.0625c1.4141 0.17969 2.3672 0.47656 2.8594 0.89062 0.5 0.41797 0.75 1.0703 0.75 1.9531 0 0.92969-0.34375 1.625-1.0312 2.0938-0.6875 0.46094-1.7109 0.6875-3.0625 0.6875-0.57422 0-1.168-0.046875-1.7812-0.14062-0.61719-0.082031-1.2461-0.21094-1.8906-0.39062v-2.125c0.55078 0.27344 1.1172 0.47656 1.7031 0.60938 0.58203 0.13672 1.1758 0.20312 1.7812 0.20312 0.53906 0 0.94531-0.070312 1.2188-0.21875 0.28125-0.15625 0.42188-0.37891 0.42188-0.67188 0-0.25-0.10156-0.42969-0.29688-0.54688-0.1875-0.125-0.5625-0.22266-1.125-0.29688l-0.48438-0.0625c-1.2422-0.15625-2.1094-0.44141-2.6094-0.85938-0.49219-0.41406-0.73438-1.0508-0.73438-1.9062 0-0.92578 0.3125-1.6094 0.9375-2.0469 0.63281-0.44531 1.6016-0.67188 2.9062-0.67188 0.50781 0 1.0469 0.042969 1.6094 0.125 0.57031 0.074219 1.1875 0.19531 1.8438 0.35938z"/>
  </symbol>
  <symbol id="j" overflow="visible">
   <path d="m8.3594-8.4219v2.2656c-0.375-0.25781-0.75781-0.45312-1.1406-0.57812-0.375-0.125-0.76562-0.1875-1.1719-0.1875-0.78125 0-1.3906 0.23047-1.8281 0.6875-0.42969 0.44922-0.64062 1.0781-0.64062 1.8906s0.21094 1.4492 0.64062 1.9062c0.4375 0.44922 1.0469 0.67188 1.8281 0.67188 0.42578 0 0.83594-0.0625 1.2344-0.1875 0.39453-0.13281 0.75391-0.32812 1.0781-0.57812v2.2812c-0.42969 0.15625-0.86719 0.26953-1.3125 0.34375-0.44922 0.082031-0.90234 0.125-1.3594 0.125-1.5625 0-2.7891-0.39844-3.6719-1.2031-0.88672-0.80078-1.3281-1.9219-1.3281-3.3594s0.44141-2.5547 1.3281-3.3594c0.88281-0.80078 2.1094-1.2031 3.6719-1.2031 0.45703 0 0.90625 0.042969 1.3438 0.125 0.44531 0.074219 0.89062 0.19531 1.3281 0.35938z"/>
  </symbol>
  <symbol id="i" overflow="visible">
   <path d="m10.078-5.2969v5.2969h-2.7969v-4.0312c0-0.76953-0.015625-1.2969-0.046875-1.5781s-0.089844-0.48828-0.17188-0.625c-0.11719-0.1875-0.26562-0.32812-0.45312-0.42188-0.17969-0.10156-0.38672-0.15625-0.625-0.15625-0.58594 0-1.043 0.22656-1.375 0.67188-0.33594 0.44922-0.5 1.0703-0.5 1.8594v4.2812h-2.7812v-12.078h2.7812v4.6562c0.42578-0.50781 0.875-0.88281 1.3438-1.125 0.46875-0.23828 0.98828-0.35938 1.5625-0.35938 1 0 1.7578 0.30859 2.2812 0.92188 0.51953 0.61719 0.78125 1.5117 0.78125 2.6875z"/>
  </symbol>
  <symbol id="u" overflow="visible">
   <path d="m1.3281-8.7031h2.7812v8.7031h-2.7812zm0-3.375h2.7812v2.2656h-2.7812z"/>
  </symbol>
  <symbol id="h" overflow="visible">
   <path d="m10.078-5.2969v5.2969h-2.7969v-4.0469c0-0.75781-0.015625-1.2812-0.046875-1.5625s-0.089844-0.48828-0.17188-0.625c-0.11719-0.1875-0.26562-0.32812-0.45312-0.42188-0.17969-0.10156-0.38672-0.15625-0.625-0.15625-0.58594 0-1.043 0.22656-1.375 0.67188-0.33594 0.44922-0.5 1.0703-0.5 1.8594v4.2812h-2.7812v-8.7031h2.7812v1.2812c0.42578-0.50781 0.875-0.88281 1.3438-1.125 0.46875-0.23828 0.98828-0.35938 1.5625-0.35938 1 0 1.7578 0.30859 2.2812 0.92188 0.51953 0.61719 0.78125 1.5117 0.78125 2.6875z"/>
  </symbol>
  <symbol id="g" overflow="visible">
   <path d="m9.3906-7.25c0.35156-0.53906 0.76953-0.95312 1.25-1.2344 0.48828-0.28125 1.0234-0.42188 1.6094-0.42188 1 0 1.7578 0.30859 2.2812 0.92188 0.51953 0.61719 0.78125 1.5117 0.78125 2.6875v5.2969h-2.7969v-4.5312c0.007813-0.070312 0.015625-0.14453 0.015625-0.21875v-0.3125c0-0.61328-0.09375-1.0547-0.28125-1.3281-0.17969-0.28125-0.46484-0.42188-0.85938-0.42188-0.53125 0-0.94531 0.21875-1.2344 0.65625-0.28125 0.4375-0.42969 1.0703-0.4375 1.8906v4.2656h-2.7969v-4.5312c0-0.96875-0.085937-1.5859-0.25-1.8594-0.16797-0.28125-0.46484-0.42188-0.89062-0.42188-0.53125 0-0.94531 0.21875-1.2344 0.65625-0.29297 0.4375-0.4375 1.0625-0.4375 1.875v4.2812h-2.7812v-8.7031h2.7812v1.2812c0.34375-0.48828 0.73438-0.85938 1.1719-1.1094 0.44531-0.25 0.9375-0.375 1.4688-0.375 0.60156 0 1.1328 0.14844 1.5938 0.4375 0.46875 0.29297 0.81641 0.69922 1.0469 1.2188z"/>
  </symbol>
  <symbol id="c" overflow="visible">
   <path d="m5.4688-6.9219c-0.61719 0-1.0859 0.22656-1.4062 0.67188-0.32422 0.4375-0.48438 1.0742-0.48438 1.9062 0 0.83594 0.16016 1.4766 0.48438 1.9219 0.32031 0.4375 0.78906 0.65625 1.4062 0.65625 0.61328 0 1.0781-0.21875 1.3906-0.65625 0.32031-0.44531 0.48438-1.0859 0.48438-1.9219 0-0.83203-0.16406-1.4688-0.48438-1.9062-0.3125-0.44531-0.77734-0.67188-1.3906-0.67188zm0-1.9844c1.5 0 2.6719 0.40625 3.5156 1.2188 0.84375 0.80469 1.2656 1.918 1.2656 3.3438 0 1.4297-0.42188 2.5469-1.2656 3.3594-0.84375 0.80469-2.0156 1.2031-3.5156 1.2031s-2.6719-0.39844-3.5156-1.2031c-0.84375-0.8125-1.2656-1.9297-1.2656-3.3594 0-1.4258 0.42188-2.5391 1.2656-3.3438 0.84375-0.8125 2.0156-1.2188 3.5156-1.2188z"/>
  </symbol>
  <symbol id="t" overflow="visible">
   <path d="m7.25-1.4688c-0.38672 0.5-0.80859 0.87109-1.2656 1.1094-0.46094 0.24219-0.99219 0.35938-1.5938 0.35938-1.0625 0-1.9453-0.41406-2.6406-1.25-0.6875-0.84375-1.0312-1.9102-1.0312-3.2031 0-1.3008 0.34375-2.3633 1.0312-3.1875 0.69531-0.83203 1.5781-1.25 2.6406-1.25 0.60156 0 1.1328 0.12109 1.5938 0.35938 0.45703 0.24219 0.87891 0.61719 1.2656 1.125v-1.2969h2.7969v7.8281c0 1.3945-0.44531 2.4609-1.3281 3.2031-0.875 0.73828-2.1523 1.1094-3.8281 1.1094-0.55469 0-1.0859-0.042969-1.5938-0.125-0.5-0.085938-1.0078-0.21484-1.5156-0.39062v-2.1562c0.48828 0.28125 0.96094 0.48828 1.4219 0.625 0.46875 0.13281 0.9375 0.20312 1.4062 0.20312 0.91406 0 1.582-0.20312 2-0.60938 0.42578-0.39844 0.64062-1.0156 0.64062-1.8594zm-1.8281-5.4219c-0.57422 0-1.0234 0.21484-1.3438 0.64062-0.32422 0.42969-0.48438 1.0273-0.48438 1.7969 0 0.80469 0.15625 1.4141 0.46875 1.8281 0.3125 0.40625 0.76562 0.60938 1.3594 0.60938 0.58203 0 1.0312-0.21094 1.3438-0.64062 0.32031-0.42578 0.48438-1.0234 0.48438-1.7969 0-0.76953-0.16406-1.3672-0.48438-1.7969-0.3125-0.42578-0.76172-0.64062-1.3438-0.64062z"/>
  </symbol>
  <symbol id="s" overflow="visible">
   <path d="m1.3281-12.078h2.7812v6.5781l3.2031-3.2031h3.2344l-4.25 4 4.5781 4.7031h-3.3594l-3.4062-3.625v3.625h-2.7812z"/>
  </symbol>
  <symbol id="r" overflow="visible">
   <path d="m7.0625-12.078v1.8125h-1.5469c-0.38672 0-0.65625 0.074219-0.8125 0.21875-0.15625 0.14844-0.23438 0.39844-0.23438 0.75v0.59375h2.375v2h-2.375v6.7031h-2.7812v-6.7031h-1.3906v-2h1.3906v-0.59375c0-0.94531 0.25781-1.6445 0.78125-2.0938 0.53125-0.45703 1.3516-0.6875 2.4688-0.6875z"/>
  </symbol>
  <symbol id="q" overflow="visible">
   <path d="m1.4531-11.594h3.3438l4.2188 7.9531v-7.9531h2.8438v11.594h-3.3438l-4.2188-7.9531v7.9531h-2.8438z"/>
  </symbol>
  <symbol id="p" overflow="visible">
   <path d="m1.25-3.3906v-5.3125h2.7812v0.875c0 0.46875-0.007812 1.0625-0.015625 1.7812v1.4219c0 0.69922 0.015625 1.2031 0.046875 1.5156 0.039062 0.30469 0.10938 0.52344 0.20312 0.65625 0.11328 0.1875 0.25781 0.33594 0.4375 0.4375 0.1875 0.09375 0.39844 0.14062 0.64062 0.14062 0.58203 0 1.0352-0.22266 1.3594-0.67188 0.33203-0.44531 0.5-1.0664 0.5-1.8594v-4.2969h2.7812v8.7031h-2.7812v-1.2656c-0.41797 0.51172-0.85938 0.88672-1.3281 1.125-0.46875 0.23828-0.98438 0.35938-1.5469 0.35938-1.0117 0-1.7773-0.30469-2.2969-0.92188-0.52344-0.61328-0.78125-1.5078-0.78125-2.6875z"/>
  </symbol>
  <symbol id="o" overflow="visible">
   <path d="m1.4531-11.594h4.9688c1.4766 0 2.6094 0.32812 3.3906 0.98438 0.78906 0.65625 1.1875 1.5898 1.1875 2.7969 0 1.2188-0.39844 2.1562-1.1875 2.8125-0.78125 0.65625-1.9141 0.98438-3.3906 0.98438h-1.9688v4.0156h-3zm3 2.1719v3.2344h1.6562c0.57031 0 1.0156-0.14062 1.3281-0.42188 0.32031-0.28125 0.48438-0.67969 0.48438-1.2031 0-0.51953-0.16406-0.91406-0.48438-1.1875-0.3125-0.28125-0.75781-0.42188-1.3281-0.42188z"/>
  </symbol>
  <symbol id="n" overflow="visible">
   <path d="m1.3281-8.7031h2.7812v8.5469c0 1.1641-0.28125 2.0547-0.84375 2.6719-0.55469 0.61328-1.3594 0.92188-2.4219 0.92188h-1.375v-1.8281h0.48438c0.53125 0 0.89062-0.12109 1.0781-0.35938 0.19531-0.24219 0.29688-0.71094 0.29688-1.4062zm0-3.375h2.7812v2.2656h-2.7812z"/>
  </symbol>
 </defs>
 <g>
  <path d="m405.6 233.43c0 5.668-27.98 10.266-62.5 10.266-34.516 0-62.496-4.5977-62.496-10.266 0-5.6719 27.98-10.27 62.496-10.27 34.52 0 62.5 4.5977 62.5 10.27"/>
  <path d="m343.1 249.13c-34.523 0-62.5-4.6016-62.5-10.27v17.289c0 5.668 27.977 10.27 62.5 10.27 34.52 0 62.504-4.5977 62.504-10.27v-17.289c0 5.6719-27.984 10.27-62.504 10.27z"/>
  <path d="m343.1 271.14c-34.523 0-62.5-4.5938-62.5-10.262v17.289c0 5.668 27.977 10.27 62.5 10.27 34.52 0 62.504-4.6016 62.504-10.27v-17.289c0 5.668-27.984 10.262-62.504 10.262z"/>
  <path d="m343.1 293.15c-34.523 0-62.5-4.5977-62.5-10.266v17.289c0 5.6719 27.977 10.262 62.5 10.262 34.52 0 62.504-4.5938 62.504-10.262v-17.289c0 5.668-27.984 10.266-62.504 10.266z"/>
  <path d="m343.1 315.16c-34.523 0-62.5-4.5938-62.5-10.262v17.293c0 5.668 27.977 10.262 62.5 10.262 34.52 0 62.504-4.5938 62.504-10.262v-17.293c0 5.6641-27.984 10.262-62.504 10.262z"/>
  <path d="m343.1 336.75c-34.523 0-62.5-4.5938-62.5-10.262v17.297c0 5.668 27.977 10.262 62.5 10.262 34.52 0 62.504-4.5938 62.504-10.262v-17.297c0 5.668-27.984 10.262-62.504 10.262z"/>
  <path d="m576.78 289.73c0-28.586-20.309-54.402-54.332-74.285 9.9922-38.121 6.1094-70.734-14.113-90.953-20.215-20.211-52.828-24.109-90.941-14.105-19.887-34.027-45.707-54.332-74.293-54.332-28.594 0-54.406 20.305-74.285 54.336-38.125-10.004-70.738-6.1055-90.949 14.109-20.215 20.211-24.109 52.828-14.113 90.949-34.027 19.883-54.336 45.699-54.336 74.285 0 28.582 20.309 54.402 54.328 74.289-10 38.121-6.1016 70.727 14.113 90.945 20.211 20.219 52.828 24.117 90.953 14.113 19.883 34.023 45.695 54.328 74.289 54.328 28.582 0 54.406-20.305 74.293-54.332 38.113 10.004 70.734 6.1055 90.941-14.105 20.223-20.211 24.117-52.828 14.113-90.953 34.023-19.891 54.332-45.699 54.332-74.289zm-77.457-156.23c13.125 13.125 13.969 39.316 3.6797 71.906-16.711-7.625-35.738-14.031-56.609-18.965-4.9414-20.875-11.348-39.906-18.973-56.613 32.59-10.297 58.777-9.4531 71.902 3.6719zm-66.996 156.23c0 12.438-0.47656 24.586-1.3555 36.402-7.7305 8.9688-15.984 17.895-24.777 26.688-8.793 8.7969-17.73 17.047-26.691 24.785-11.812 0.86719-23.965 1.3438-36.402 1.3438s-24.586-0.47656-36.398-1.3438c-8.9609-7.7383-17.895-15.988-26.691-24.785-8.7969-8.8008-17.051-17.727-24.785-26.695-0.87109-11.812-1.3477-23.957-1.3477-36.395s0.47656-24.586 1.3477-36.398c7.7305-8.9688 15.98-17.895 24.777-26.691 8.8008-8.793 17.727-17.043 26.695-24.777 11.816-0.875 23.961-1.3555 36.398-1.3555s24.586 0.48047 36.402 1.3516c8.9609 7.7383 17.898 15.988 26.691 24.785s17.047 17.723 24.777 26.691c0.87891 11.809 1.3594 23.953 1.3594 36.395zm-42.621-112.52c-7.9844-6.5859-16.004-12.734-24.023-18.477 13.906-8.418 27.457-15.402 40.34-20.906 5.207 13 9.8555 27.52 13.742 43.305-9.7422-1.6094-19.754-2.9375-30.059-3.9219zm-93.215 0c-10.301 0.98828-20.324 2.3125-30.055 3.9219 3.8828-15.789 8.5312-30.305 13.742-43.305 12.883 5.5039 26.43 12.488 40.344 20.902-8.0273 5.7461-16.051 11.891-24.031 18.48zm-65.91 65.906c-6.5859 7.9805-12.73 16.004-18.48 24.027-8.4141-13.91-15.398-27.457-20.902-40.336 13.004-5.2188 27.52-9.8594 43.301-13.742-1.5977 9.7344-2.9258 19.75-3.918 30.051zm0 93.211c0.98828 10.309 2.3086 20.324 3.9219 30.062-15.785-3.8906-30.301-8.5312-43.301-13.746 5.5039-12.887 12.484-26.43 20.902-40.34 5.7461 8.0195 11.895 16.035 18.477 24.023zm65.918 65.918c7.9805 6.5859 16.004 12.73 24.023 18.473-13.906 8.4219-27.461 15.398-40.344 20.91-5.2109-13.004-9.8555-27.52-13.742-43.312 9.7383 1.6094 19.758 2.9414 30.062 3.9297zm93.207 0c10.305-0.98828 20.316-2.3164 30.055-3.9297-3.8828 15.789-8.5312 30.309-13.742 43.312-12.883-5.5078-26.43-12.484-40.34-20.91 8.0273-5.7422 16.051-11.891 24.027-18.473zm65.914-65.914c6.5859-7.9844 12.734-16.008 18.477-24.027 8.4219 13.906 15.406 27.461 20.906 40.344-13 5.2109-27.52 9.8516-43.309 13.742 1.6055-9.7344 2.9297-19.758 3.9258-30.059zm0-93.215c-0.99609-10.301-2.3164-20.32-3.9258-30.051 15.785 3.8828 30.309 8.5273 43.309 13.738-5.5039 12.883-12.488 26.434-20.91 40.34-5.7422-8.0195-11.887-16.043-18.473-24.027zm-112.52-174.32c18.559 0 37.676 17.922 53.441 48.238-17.203 6.4219-35.199 15.348-53.441 26.613-18.254-11.266-36.242-20.188-53.445-26.613 15.766-30.316 34.887-48.238 53.445-48.238zm-156.22 64.711c13.117-13.125 39.305-13.969 71.898-3.6758-7.6211 16.707-14.031 35.738-18.969 56.613-20.867 4.9336-39.906 11.348-56.605 18.965-10.297-32.586-9.4531-58.781 3.6758-71.902zm-64.715 156.22c0-18.559 17.922-37.68 48.242-53.441 6.4258 17.203 15.344 35.191 26.613 53.441-11.27 18.246-20.191 36.238-26.617 53.438-30.316-15.766-48.238-34.879-48.238-53.438zm64.707 156.22c-13.125-13.129-13.969-39.312-3.6719-71.895 16.699 7.6172 35.738 14.027 56.605 18.969 4.9375 20.867 11.348 39.898 18.969 56.605-32.586 10.293-58.777 9.4492-71.902-3.6797zm156.23 64.719c-18.559 0-37.68-17.93-53.445-48.242 17.203-6.4336 35.199-15.352 53.445-26.617 18.25 11.266 36.238 20.184 53.441 26.609-15.766 30.32-34.879 48.25-53.441 48.25zm156.22-64.719c-13.125 13.129-39.312 13.973-71.902 3.6797 7.625-16.703 14.031-35.738 18.973-56.605 20.867-4.9414 39.898-11.352 56.609-18.969 10.293 32.582 9.4453 58.777-3.6797 71.895zm16.477-102.78c-6.4258-17.203-15.352-35.199-26.617-53.445 11.266-18.246 20.191-36.238 26.609-53.441 30.328 15.762 48.242 34.883 48.242 53.441 0 18.562-17.914 37.684-48.234 53.445z"/>
  <use x="19.089844" y="607.726562" xlink:href="#v"/>
  <use x="30.765625" y="607.726562" xlink:href="#b"/>
  <use x="38.613281" y="607.726562" xlink:href="#a"/>
  <use x="49.402344" y="607.726562" xlink:href="#e"/>
  <use x="60.136719" y="607.726562" xlink:href="#d"/>
  <use x="67.742187" y="607.726562" xlink:href="#a"/>
  <use x="78.53125" y="607.726562" xlink:href="#f"/>
  <use x="95.460938" y="607.726562" xlink:href="#m"/>
  <use x="106.847656" y="607.726562" xlink:href="#l"/>
  <use x="122.757812" y="607.726562" xlink:href="#k"/>
  <use x="132.226562" y="607.726562" xlink:href="#e"/>
  <use x="142.960938" y="607.726562" xlink:href="#j"/>
  <use x="152.390625" y="607.726562" xlink:href="#i"/>
  <use x="163.71875" y="607.726562" xlink:href="#u"/>
  <use x="169.171875" y="607.726562" xlink:href="#h"/>
  <use x="186.035156" y="607.726562" xlink:href="#g"/>
  <use x="202.613281" y="607.726562" xlink:href="#c"/>
  <use x="213.542969" y="607.726562" xlink:href="#f"/>
  <use x="224.929688" y="607.726562" xlink:href="#t"/>
  <use x="236.320312" y="607.726562" xlink:href="#a"/>
  <use x="247.109375" y="607.726562" xlink:href="#s"/>
  <use x="257.6875" y="607.726562" xlink:href="#e"/>
  <use x="268.425781" y="607.726562" xlink:href="#b"/>
  <use x="19.089844" y="623.636719" xlink:href="#r"/>
  <use x="26.011719" y="623.636719" xlink:href="#b"/>
  <use x="33.859375" y="623.636719" xlink:href="#c"/>
  <use x="44.789062" y="623.636719" xlink:href="#g"/>
  <use x="66.902344" y="623.636719" xlink:href="#d"/>
  <use x="74.507812" y="623.636719" xlink:href="#i"/>
  <use x="85.835938" y="623.636719" xlink:href="#a"/>
  <use x="102.164062" y="623.636719" xlink:href="#q"/>
  <use x="115.476562" y="623.636719" xlink:href="#c"/>
  <use x="126.40625" y="623.636719" xlink:href="#p"/>
  <use x="137.734375" y="623.636719" xlink:href="#h"/>
  <use x="154.597656" y="623.636719" xlink:href="#o"/>
  <use x="166.257812" y="623.636719" xlink:href="#b"/>
  <use x="174.105469" y="623.636719" xlink:href="#c"/>
  <use x="185.035156" y="623.636719" xlink:href="#n"/>
  <use x="190.488281" y="623.636719" xlink:href="#a"/>
  <use x="201.277344" y="623.636719" xlink:href="#j"/>
  <use x="210.707031" y="623.636719" xlink:href="#d"/>
 </g>
</svg>
